<svg width="576" height="130" viewBox="0 0 576 130" fill="none" xmlns="http://www.w3.org/2000/svg">
<path d="M5.00125 58.7816C5.00125 58.7816 54.0704 37.1219 77.0688 38.2623C100.067 39.4027 113.696 60.1127 134.723 58.7816C155.749 57.4506 173.611 41.4273 194.436 38.2624C215.26 35.0976 243.092 61.6588 264.444 58.7816C285.797 55.9045 300.572 39.2606 322.098 38.2623C343.625 37.264 360.876 57.5587 383.87 58.7816C406.864 60.0045 422.731 35.6538 441.524 38.263C460.318 40.8722 493.001 58.7816 493.001 58.7816" stroke="#FFD187" stroke-width="10" stroke-linecap="round" stroke-linejoin="round"/>
<path d="M77.0013 71.2623C99.9708 72.4027 113.583 93.1127 134.583 91.7816C155.583 90.4506 173.423 74.4273 194.222 71.2624C215.02 68.0976 242.817 94.6588 264.142 91.7816C285.468 88.9045 300.225 72.2606 321.724 71.2623C343.224 70.264 360.454 90.5587 383.419 91.7816C406.385 93.0045 422.232 68.6538 441.001 71.263" stroke="#FFD187" stroke-width="10" stroke-linecap="round" stroke-linejoin="round"/>
<path d="M207.001 104.262C229.971 105.403 243.583 126.113 264.583 124.782C285.583 123.451 303.423 107.427 324.222 104.262C345.02 101.098 372.817 127.659 394.142 124.782C415.468 121.904 430.225 105.261 451.724 104.262C473.224 103.264 490.454 123.559 513.419 124.782C536.385 126.005 552.232 101.654 571.001 104.263" stroke="#FFD187" stroke-width="10" stroke-linecap="round" stroke-linejoin="round"/>
<path d="M198.001 5.26232C221.034 6.4027 234.683 27.1127 255.741 25.7816C276.799 24.4506 294.688 8.42728 315.544 5.26244C336.399 2.09759 364.272 28.6588 385.657 25.7816C407.041 22.9045 421.838 6.26062 443.397 5.26232C464.956 4.26401 482.233 24.5587 505.261 25.7816C528.289 27.0045 544.18 2.65383 563.001 5.263" stroke="#FFD187" stroke-width="10" stroke-linecap="round" stroke-linejoin="round"/>
</svg>
