<svg width="174" height="40" viewBox="0 0 174 40" fill="none" xmlns="http://www.w3.org/2000/svg">
<path d="M2.00049 18.1235C2.00049 18.1235 16.7111 11.6301 23.6059 11.972C30.5006 12.3138 34.5865 18.5226 40.8902 18.1235C47.1938 17.7245 52.5487 12.9208 58.7918 11.972C65.0349 11.0232 73.3785 18.9861 79.7799 18.1235C86.1813 17.261 90.6106 12.2712 97.0642 11.972C103.518 11.6727 108.69 17.7569 115.583 18.1235C122.477 18.4901 127.233 11.1899 132.867 11.9722C138.501 12.7544 148.3 18.1235 148.3 18.1235" stroke="#FFD187" stroke-width="4" stroke-linecap="round" stroke-linejoin="round"/>
<path d="M23.5856 21.865C30.4717 22.2069 34.5525 28.4156 40.8483 28.0166C47.144 27.6175 52.4922 22.8139 58.7275 21.8651C64.9628 20.9163 73.296 28.8791 79.6894 28.0166C86.0827 27.154 90.5065 22.1643 96.9521 21.865C103.398 21.5657 108.563 27.65 115.448 28.0166C122.333 28.3832 127.084 21.083 132.711 21.8652" stroke="#FFD187" stroke-width="4" stroke-linecap="round" stroke-linejoin="round"/>
<path d="M62.5587 31.7581C69.4449 32.1 73.5257 38.3087 79.8214 37.9096C86.1172 37.5106 91.4654 32.7069 97.7006 31.7581C103.936 30.8093 112.269 38.7722 118.662 37.9096C125.056 37.0471 129.48 32.0574 135.925 31.7581C142.371 31.4588 147.536 37.543 154.421 37.9096C161.306 38.2763 166.057 30.9761 171.684 31.7583" stroke="#FFD187" stroke-width="4" stroke-linecap="round" stroke-linejoin="round"/>
<path d="M59.8606 2.07864C66.7656 2.42052 70.8577 8.62925 77.1707 8.2302C83.4838 7.83116 88.8467 3.02748 95.0991 2.07868C101.351 1.12987 109.708 9.09275 116.119 8.2302C122.529 7.36766 126.965 2.37792 133.429 2.07864C139.892 1.77936 145.071 7.86359 151.975 8.2302C158.879 8.59682 163.643 1.29663 169.285 2.07885" stroke="#FFD187" stroke-width="4" stroke-linecap="round" stroke-linejoin="round"/>
</svg>
